<mxfile host="app.diagrams.net" agent="Mozilla/5.0 (X11; Linux x86_64) AppleWebKit/537.36 (KHTML, like Gecko) Chrome/131.0.0.0 Safari/537.36" version="25.0.3">
  <diagram name="Page-1" id="kWwt1TNQDM94EkBvSqwf">
    <mxGraphModel dx="4947" dy="2263" grid="1" gridSize="10" guides="1" tooltips="1" connect="1" arrows="1" fold="1" page="1" pageScale="1" pageWidth="850" pageHeight="1100" math="0" shadow="0">
      <root>
        <mxCell id="0" />
        <mxCell id="1" parent="0" />
        <mxCell id="HwaEknkDrfzKUnBaiW2I-5" value="" style="rounded=1;whiteSpace=wrap;html=1;strokeWidth=5;fillColor=#FFFFFF;strokeColor=#5196FD;" parent="1" vertex="1">
          <mxGeometry x="-820" y="221" width="190" height="330" as="geometry" />
        </mxCell>
        <mxCell id="HwaEknkDrfzKUnBaiW2I-87" value="" style="rounded=1;whiteSpace=wrap;html=1;strokeWidth=5;fillColor=#FFFFFF;strokeColor=#2E6CE5;" parent="1" vertex="1">
          <mxGeometry x="-517.5" y="105" width="1617.5" height="890" as="geometry" />
        </mxCell>
        <mxCell id="HwaEknkDrfzKUnBaiW2I-1" value="" style="image;aspect=fixed;perimeter=ellipsePerimeter;html=1;align=center;shadow=0;dashed=0;spacingTop=3;image=img/lib/active_directory/laptop_client.svg;" parent="1" vertex="1">
          <mxGeometry x="-810" y="245.00000000000003" width="71.5" height="79.44" as="geometry" />
        </mxCell>
        <mxCell id="HwaEknkDrfzKUnBaiW2I-2" value="" style="image;aspect=fixed;perimeter=ellipsePerimeter;html=1;align=center;shadow=0;dashed=0;spacingTop=3;image=img/lib/active_directory/laptop_client.svg;" parent="1" vertex="1">
          <mxGeometry x="-720" y="294.56" width="81" height="90" as="geometry" />
        </mxCell>
        <mxCell id="HwaEknkDrfzKUnBaiW2I-3" value="" style="image;aspect=fixed;perimeter=ellipsePerimeter;html=1;align=center;shadow=0;dashed=0;spacingTop=3;image=img/lib/active_directory/laptop_client.svg;" parent="1" vertex="1">
          <mxGeometry x="-810" y="384.56" width="71.5" height="79.44" as="geometry" />
        </mxCell>
        <mxCell id="HwaEknkDrfzKUnBaiW2I-4" value="" style="image;aspect=fixed;perimeter=ellipsePerimeter;html=1;align=center;shadow=0;dashed=0;spacingTop=3;image=img/lib/active_directory/laptop_client.svg;" parent="1" vertex="1">
          <mxGeometry x="-720" y="458" width="72" height="80" as="geometry" />
        </mxCell>
        <mxCell id="HwaEknkDrfzKUnBaiW2I-6" value="&lt;font style=&quot;font-size: 24px;&quot;&gt;Users&lt;/font&gt;" style="text;html=1;align=center;verticalAlign=middle;whiteSpace=wrap;rounded=0;" parent="1" vertex="1">
          <mxGeometry x="-782.5" y="165" width="100" height="50" as="geometry" />
        </mxCell>
        <mxCell id="HwaEknkDrfzKUnBaiW2I-20" style="edgeStyle=orthogonalEdgeStyle;rounded=0;orthogonalLoop=1;jettySize=auto;html=1;exitX=0.25;exitY=0;exitDx=0;exitDy=0;entryX=0;entryY=0.5;entryDx=0;entryDy=0;strokeColor=#000000;" parent="1" source="HwaEknkDrfzKUnBaiW2I-9" target="HwaEknkDrfzKUnBaiW2I-18" edge="1">
          <mxGeometry relative="1" as="geometry" />
        </mxCell>
        <mxCell id="HwaEknkDrfzKUnBaiW2I-45" style="edgeStyle=orthogonalEdgeStyle;rounded=0;orthogonalLoop=1;jettySize=auto;html=1;exitX=0.5;exitY=1;exitDx=0;exitDy=0;entryX=0;entryY=0.5;entryDx=0;entryDy=0;strokeColor=#000000;" parent="1" source="HwaEknkDrfzKUnBaiW2I-9" target="HwaEknkDrfzKUnBaiW2I-44" edge="1">
          <mxGeometry relative="1" as="geometry" />
        </mxCell>
        <mxCell id="HwaEknkDrfzKUnBaiW2I-9" value="" style="shape=image;verticalLabelPosition=bottom;labelBackgroundColor=default;verticalAlign=top;aspect=fixed;imageAspect=0;image=https://landscape.cncf.io/logos/e7ec76aed9cec7e65927f9f8cf4e675d49e79154c45c504a5cd6da1fdaecfc2d.svg;" parent="1" vertex="1">
          <mxGeometry x="-520" y="355" width="126.53" height="80" as="geometry" />
        </mxCell>
        <mxCell id="HwaEknkDrfzKUnBaiW2I-46" style="edgeStyle=orthogonalEdgeStyle;rounded=0;orthogonalLoop=1;jettySize=auto;html=1;exitX=0.5;exitY=1;exitDx=0;exitDy=0;strokeColor=#000000;" parent="1" source="HwaEknkDrfzKUnBaiW2I-18" target="HwaEknkDrfzKUnBaiW2I-44" edge="1">
          <mxGeometry relative="1" as="geometry">
            <Array as="points">
              <mxPoint x="-314" y="375" />
              <mxPoint x="-337" y="375" />
            </Array>
          </mxGeometry>
        </mxCell>
        <mxCell id="HwaEknkDrfzKUnBaiW2I-59" style="edgeStyle=orthogonalEdgeStyle;rounded=0;orthogonalLoop=1;jettySize=auto;html=1;strokeColor=#000000;" parent="1" target="HwaEknkDrfzKUnBaiW2I-55" edge="1">
          <mxGeometry relative="1" as="geometry">
            <mxPoint x="-290" y="335" as="sourcePoint" />
            <Array as="points">
              <mxPoint x="-270" y="375" />
              <mxPoint x="-195" y="375" />
            </Array>
          </mxGeometry>
        </mxCell>
        <mxCell id="D2LBuSgKbTY1uJd73G2o-7" style="edgeStyle=orthogonalEdgeStyle;rounded=0;orthogonalLoop=1;jettySize=auto;html=1;" edge="1" parent="1" source="HwaEknkDrfzKUnBaiW2I-18" target="D2LBuSgKbTY1uJd73G2o-5">
          <mxGeometry relative="1" as="geometry" />
        </mxCell>
        <mxCell id="HwaEknkDrfzKUnBaiW2I-18" value="" style="shape=image;verticalLabelPosition=bottom;labelBackgroundColor=default;verticalAlign=top;aspect=fixed;imageAspect=0;image=https://jupyterhub.readthedocs.io/en/stable/_static/logo.png;" parent="1" vertex="1">
          <mxGeometry x="-425.1" y="245" width="285.53" height="90" as="geometry" />
        </mxCell>
        <mxCell id="D2LBuSgKbTY1uJd73G2o-8" style="edgeStyle=orthogonalEdgeStyle;rounded=0;orthogonalLoop=1;jettySize=auto;html=1;entryX=0.5;entryY=0;entryDx=0;entryDy=0;" edge="1" parent="1" source="HwaEknkDrfzKUnBaiW2I-44" target="HwaEknkDrfzKUnBaiW2I-47">
          <mxGeometry relative="1" as="geometry" />
        </mxCell>
        <mxCell id="HwaEknkDrfzKUnBaiW2I-44" value="" style="shape=image;verticalLabelPosition=bottom;labelBackgroundColor=default;verticalAlign=top;aspect=fixed;imageAspect=0;image=https://upload.wikimedia.org/wikipedia/commons/thumb/2/29/Postgresql_elephant.svg/1200px-Postgresql_elephant.svg.png;" parent="1" vertex="1">
          <mxGeometry x="-390" y="445" width="77.6" height="80" as="geometry" />
        </mxCell>
        <mxCell id="HwaEknkDrfzKUnBaiW2I-47" value="" style="rounded=1;whiteSpace=wrap;html=1;fillColor=none;strokeColor=#000000;" parent="1" vertex="1">
          <mxGeometry x="-474.06" y="645" width="274.06" height="240" as="geometry" />
        </mxCell>
        <mxCell id="HwaEknkDrfzKUnBaiW2I-48" value="" style="aspect=fixed;sketch=0;html=1;dashed=0;whitespace=wrap;verticalLabelPosition=bottom;verticalAlign=top;fillColor=#2875E2;strokeColor=#ffffff;points=[[0.005,0.63,0],[0.1,0.2,0],[0.9,0.2,0],[0.5,0,0],[0.995,0.63,0],[0.72,0.99,0],[0.5,1,0],[0.28,0.99,0]];shape=mxgraph.kubernetes.icon2;prIcon=pv" parent="1" vertex="1">
          <mxGeometry x="-390" y="805" width="50" height="48" as="geometry" />
        </mxCell>
        <mxCell id="HwaEknkDrfzKUnBaiW2I-49" value="" style="aspect=fixed;sketch=0;html=1;dashed=0;whitespace=wrap;verticalLabelPosition=bottom;verticalAlign=top;fillColor=#2875E2;strokeColor=#ffffff;points=[[0.005,0.63,0],[0.1,0.2,0],[0.9,0.2,0],[0.5,0,0],[0.995,0.63,0],[0.72,0.99,0],[0.5,1,0],[0.28,0.99,0]];shape=mxgraph.kubernetes.icon2;prIcon=pv" parent="1" vertex="1">
          <mxGeometry x="-456.65" y="805" width="50" height="48" as="geometry" />
        </mxCell>
        <mxCell id="HwaEknkDrfzKUnBaiW2I-50" value="" style="aspect=fixed;sketch=0;html=1;dashed=0;whitespace=wrap;verticalLabelPosition=bottom;verticalAlign=top;fillColor=#2875E2;strokeColor=#ffffff;points=[[0.005,0.63,0],[0.1,0.2,0],[0.9,0.2,0],[0.5,0,0],[0.995,0.63,0],[0.72,0.99,0],[0.5,1,0],[0.28,0.99,0]];shape=mxgraph.kubernetes.icon2;prIcon=pv" parent="1" vertex="1">
          <mxGeometry x="-330" y="805" width="50" height="48" as="geometry" />
        </mxCell>
        <mxCell id="HwaEknkDrfzKUnBaiW2I-51" value="" style="aspect=fixed;sketch=0;html=1;dashed=0;whitespace=wrap;verticalLabelPosition=bottom;verticalAlign=top;fillColor=#2875E2;strokeColor=#ffffff;points=[[0.005,0.63,0],[0.1,0.2,0],[0.9,0.2,0],[0.5,0,0],[0.995,0.63,0],[0.72,0.99,0],[0.5,1,0],[0.28,0.99,0]];shape=mxgraph.kubernetes.icon2;prIcon=pv" parent="1" vertex="1">
          <mxGeometry x="-266.65" y="805" width="50" height="48" as="geometry" />
        </mxCell>
        <mxCell id="HwaEknkDrfzKUnBaiW2I-52" value="" style="shape=image;verticalLabelPosition=bottom;labelBackgroundColor=default;verticalAlign=top;aspect=fixed;imageAspect=0;image=https://longhorn.io/img/logos/longhorn-icon-color.png;" parent="1" vertex="1">
          <mxGeometry x="-406.65" y="656" width="140" height="140" as="geometry" />
        </mxCell>
        <mxCell id="HwaEknkDrfzKUnBaiW2I-64" style="edgeStyle=orthogonalEdgeStyle;rounded=0;orthogonalLoop=1;jettySize=auto;html=1;entryX=0.75;entryY=0;entryDx=0;entryDy=0;strokeColor=#000000;" parent="1" source="HwaEknkDrfzKUnBaiW2I-55" target="HwaEknkDrfzKUnBaiW2I-47" edge="1">
          <mxGeometry relative="1" as="geometry" />
        </mxCell>
        <mxCell id="HwaEknkDrfzKUnBaiW2I-55" value="" style="verticalLabelPosition=bottom;html=1;verticalAlign=top;strokeWidth=1;align=center;outlineConnect=0;dashed=0;outlineConnect=0;shape=mxgraph.aws3d.file;aspect=fixed;strokeColor=#292929;" parent="1" vertex="1">
          <mxGeometry x="-204.06" y="455" width="30.8" height="70.6" as="geometry" />
        </mxCell>
        <mxCell id="HwaEknkDrfzKUnBaiW2I-63" style="edgeStyle=orthogonalEdgeStyle;rounded=0;orthogonalLoop=1;jettySize=auto;html=1;exitX=0.25;exitY=1;exitDx=0;exitDy=0;entryX=0.335;entryY=0.013;entryDx=0;entryDy=0;entryPerimeter=0;strokeColor=#000000;" parent="1" source="HwaEknkDrfzKUnBaiW2I-9" target="HwaEknkDrfzKUnBaiW2I-47" edge="1">
          <mxGeometry relative="1" as="geometry">
            <Array as="points">
              <mxPoint x="-496" y="585" />
              <mxPoint x="-382" y="585" />
            </Array>
          </mxGeometry>
        </mxCell>
        <mxCell id="HwaEknkDrfzKUnBaiW2I-75" style="edgeStyle=orthogonalEdgeStyle;rounded=0;orthogonalLoop=1;jettySize=auto;html=1;exitX=0;exitY=0.5;exitDx=0;exitDy=0;entryX=1;entryY=0.5;entryDx=0;entryDy=0;strokeColor=#000000;" parent="1" source="HwaEknkDrfzKUnBaiW2I-69" target="HwaEknkDrfzKUnBaiW2I-47" edge="1">
          <mxGeometry relative="1" as="geometry" />
        </mxCell>
        <mxCell id="HwaEknkDrfzKUnBaiW2I-80" style="edgeStyle=orthogonalEdgeStyle;rounded=0;orthogonalLoop=1;jettySize=auto;html=1;fillColor=#fff2cc;strokeColor=#d6b656;strokeWidth=5;" parent="1" source="HwaEknkDrfzKUnBaiW2I-69" target="HwaEknkDrfzKUnBaiW2I-70" edge="1">
          <mxGeometry relative="1" as="geometry">
            <Array as="points">
              <mxPoint x="170" y="615" />
              <mxPoint x="170" y="615" />
            </Array>
          </mxGeometry>
        </mxCell>
        <mxCell id="HwaEknkDrfzKUnBaiW2I-69" value="" style="shape=image;verticalLabelPosition=bottom;labelBackgroundColor=default;verticalAlign=top;aspect=fixed;imageAspect=0;image=https://www.cdnlogo.com/logos/m/66/minio.svg;" parent="1" vertex="1">
          <mxGeometry x="-69.99999999999999" y="565" width="60.39" height="122" as="geometry" />
        </mxCell>
        <mxCell id="HwaEknkDrfzKUnBaiW2I-70" value="" style="shape=image;verticalLabelPosition=bottom;labelBackgroundColor=default;verticalAlign=top;aspect=fixed;imageAspect=0;image=https://cdn.worldvectorlogo.com/logos/hadoop.svg;" parent="1" vertex="1">
          <mxGeometry x="130" y="577.5" width="90" height="67.5" as="geometry" />
        </mxCell>
        <mxCell id="HwaEknkDrfzKUnBaiW2I-84" value="" style="shape=image;verticalLabelPosition=bottom;labelBackgroundColor=default;verticalAlign=top;aspect=fixed;imageAspect=0;image=https://upload.wikimedia.org/wikipedia/commons/thumb/3/39/Kubernetes_logo_without_workmark.svg/2109px-Kubernetes_logo_without_workmark.svg.png;" parent="1" vertex="1">
          <mxGeometry x="95.91" y="125" width="144.09" height="140" as="geometry" />
        </mxCell>
        <mxCell id="HwaEknkDrfzKUnBaiW2I-116" style="edgeStyle=orthogonalEdgeStyle;rounded=0;orthogonalLoop=1;jettySize=auto;html=1;exitX=1;exitY=0.25;exitDx=0;exitDy=0;entryX=0;entryY=0.5;entryDx=0;entryDy=0;dashed=1;dashPattern=8 8;fillColor=#dae8fc;strokeColor=#FFFFFF;" parent="1" edge="1">
          <mxGeometry relative="1" as="geometry">
            <mxPoint x="1016" y="376.9999999999998" as="sourcePoint" />
            <mxPoint x="700" y="386" as="targetPoint" />
          </mxGeometry>
        </mxCell>
        <mxCell id="HwaEknkDrfzKUnBaiW2I-120" style="edgeStyle=orthogonalEdgeStyle;rounded=0;orthogonalLoop=1;jettySize=auto;html=1;strokeColor=#999999;strokeWidth=5;" parent="1" source="HwaEknkDrfzKUnBaiW2I-5" edge="1">
          <mxGeometry relative="1" as="geometry">
            <mxPoint x="-520" y="386" as="targetPoint" />
          </mxGeometry>
        </mxCell>
        <mxCell id="D2LBuSgKbTY1uJd73G2o-2" value="" style="shape=image;verticalLabelPosition=bottom;labelBackgroundColor=default;verticalAlign=top;aspect=fixed;imageAspect=0;image=https://apache.org/logos/res/sedona/sedona.png;" vertex="1" parent="1">
          <mxGeometry x="750" y="195" width="122.45" height="50" as="geometry" />
        </mxCell>
        <mxCell id="D2LBuSgKbTY1uJd73G2o-5" value="" style="shape=image;verticalLabelPosition=bottom;labelBackgroundColor=default;verticalAlign=top;aspect=fixed;imageAspect=0;image=https://docs.cloud.sdu.dk/_images/Spark_Standalone_Cluster.png;" vertex="1" parent="1">
          <mxGeometry x="450" y="245" width="551.11" height="310" as="geometry" />
        </mxCell>
        <mxCell id="D2LBuSgKbTY1uJd73G2o-9" value="" style="rounded=1;whiteSpace=wrap;html=1;fillColor=none;strokeColor=#CC6600;strokeWidth=4;" vertex="1" parent="1">
          <mxGeometry x="460" y="175" width="570" height="380" as="geometry" />
        </mxCell>
        <mxCell id="D2LBuSgKbTY1uJd73G2o-19" value="" style="endArrow=classic;html=1;rounded=0;entryX=1;entryY=0.75;entryDx=0;entryDy=0;strokeColor=#D6B656;strokeWidth=5;" edge="1" parent="1" target="HwaEknkDrfzKUnBaiW2I-70">
          <mxGeometry width="50" height="50" relative="1" as="geometry">
            <mxPoint x="330" y="405" as="sourcePoint" />
            <mxPoint x="360" y="495" as="targetPoint" />
            <Array as="points">
              <mxPoint x="330" y="628" />
            </Array>
          </mxGeometry>
        </mxCell>
      </root>
    </mxGraphModel>
  </diagram>
</mxfile>
